<svg width="275" height="304" viewBox="0 0 275 304" fill="none" xmlns="http://www.w3.org/2000/svg">
<g filter="url(#filter0_d_3_2)">
<path d="M13.7181 280.688C78.2124 254.646 116.506 196.417 128.598 106C129.046 102.25 128.263 99.4375 126.247 97.5625C124.456 95.4792 121.544 94.4375 117.514 94.4375H63.7683C54.8108 94.4375 43.9498 94.8542 31.1853 95.6875L23.1236 96.3125C20.8842 96.5208 19.0927 96 17.749 94.75C16.6293 93.2917 16.0695 91.7292 16.0695 90.0625C16.0695 88.1875 16.6293 86.625 17.749 85.375C19.0927 84.125 20.8842 83.6042 23.1236 83.8125L31.1853 84.4375C45.2934 85.2708 56.1544 85.6875 63.7683 85.6875H119.529C127.143 85.6875 131.286 82.1458 131.958 75.0625C133.077 57.7708 133.637 38.2917 133.637 16.625C133.637 11.4167 135.205 7.5625 138.34 5.0625C141.699 2.35417 145.842 1 150.768 1C154.799 1 158.158 1.72916 160.846 3.18749C163.533 4.64583 164.876 6.10416 164.876 7.56249C164.876 9.22916 163.085 10.1667 159.502 10.375C158.158 10.5833 157.039 11.3125 156.143 12.5625C155.471 13.8125 155.135 15.1667 155.135 16.625C155.135 38.7083 154.575 57.9792 153.456 74.4375C153.232 77.9792 154.015 80.7917 155.807 82.875C157.822 84.75 160.734 85.6875 164.541 85.6875H223.66C225.676 85.6875 227.579 85.2708 229.371 84.4375C231.386 83.3958 233.178 82.25 234.745 81C238.552 78.2917 241.575 76.9375 243.815 76.9375C246.278 76.9375 249.413 77.9792 253.22 80.0625C257.251 82.1458 260.722 84.5417 263.633 87.25C266.544 89.9583 268 92.1458 268 93.8125C268 95.2708 267.552 96.5208 266.656 97.5625C265.985 98.3958 265.089 99.125 263.969 99.75C261.954 101 260.386 102.354 259.266 103.812C258.371 105.271 258.035 107.458 258.259 110.375L258.595 123.5C258.595 148.083 256.803 171.208 253.22 192.875C249.637 214.542 244.934 232.771 239.112 247.563C233.29 262.146 227.243 271.833 220.973 276.625C213.359 282.458 206.305 285.375 199.811 285.375C193.541 285.375 188.502 282.771 184.695 277.563C181.56 273.188 175.29 269.125 165.884 265.375C156.703 261.625 148.865 258.813 142.371 256.938C136.1 254.854 132.405 253.604 131.286 253.188C127.927 251.938 126.247 250.063 126.247 247.563C126.247 246.104 126.919 244.958 128.263 244.125C129.83 243.083 131.846 242.875 134.309 243.5L143.714 246.313C165.66 253.813 181.336 257.563 190.741 257.563C194.1 257.563 196.788 257.146 198.803 256.313C224.108 246.104 236.761 195.792 236.761 105.375C236.761 101.833 235.753 99.125 233.737 97.25C231.722 95.375 228.811 94.4375 225.004 94.4375H162.525C155.359 94.4375 151.216 97.875 150.097 104.75C144.274 147.875 131.398 185.375 111.467 217.25C91.7606 249.125 61.0811 273.292 19.4286 289.75C17.6371 290.583 15.6216 291 13.3822 291C11.5907 291 10.0232 290.583 8.67953 289.75C7.55984 288.917 7 287.979 7 286.938C7 284.646 9.23938 282.563 13.7181 280.688Z" fill="white"/>
</g>
<defs>
<filter id="filter0_d_3_2" x="0.2" y="0.2" width="274.6" height="303.6" filterUnits="userSpaceOnUse" color-interpolation-filters="sRGB">
<feFlood flood-opacity="0" result="BackgroundImageFix"/>
<feColorMatrix in="SourceAlpha" type="matrix" values="0 0 0 0 0 0 0 0 0 0 0 0 0 0 0 0 0 0 127 0" result="hardAlpha"/>
<feOffset dy="6"/>
<feGaussianBlur stdDeviation="3.4"/>
<feComposite in2="hardAlpha" operator="out"/>
<feColorMatrix type="matrix" values="0 0 0 0 0 0 0 0 0 0 0 0 0 0 0 0 0 0 0.25 0"/>
<feBlend mode="normal" in2="BackgroundImageFix" result="effect1_dropShadow_3_2"/>
<feBlend mode="normal" in="SourceGraphic" in2="effect1_dropShadow_3_2" result="shape"/>
</filter>
</defs>
</svg>
