<svg width="345" height="345" viewBox="0 0 345 345" fill="none" xmlns="http://www.w3.org/2000/svg">
<g filter="url(#filter0_g_1_3403)">
<path d="M59.1519 304.865C118.21 279.273 153.275 222.047 164.349 133.19C164.759 129.504 164.041 126.74 162.196 124.898C160.555 122.85 157.889 121.827 154.198 121.827H104.983C96.7808 121.827 86.8353 122.236 75.1467 123.055L67.7645 123.669C65.7139 123.874 64.0734 123.362 62.843 122.134C61.8177 120.7 61.305 119.165 61.305 117.527C61.305 115.684 61.8177 114.149 62.843 112.92C64.0734 111.692 65.7139 111.18 67.7645 111.385L75.1467 111.999C88.0656 112.818 98.0112 113.227 104.983 113.227H156.044C163.016 113.227 166.81 109.747 167.425 102.786C168.45 85.792 168.963 66.6487 168.963 45.3556C168.963 40.2371 170.398 36.4493 173.269 33.9925C176.345 31.3308 180.139 30 184.65 30C188.341 30 191.417 30.7166 193.878 32.1498C196.338 33.583 197.569 35.0162 197.569 36.4493C197.569 38.0873 195.928 39.0086 192.647 39.2134C191.417 39.4181 190.392 40.1347 189.571 41.3631C188.956 42.5916 188.649 43.9224 188.649 45.3556C188.649 67.0582 188.136 85.9968 187.111 102.171C186.906 105.652 187.623 108.416 189.264 110.463C191.109 112.306 193.775 113.227 197.261 113.227H251.398C253.243 113.227 254.986 112.818 256.627 111.999C258.472 110.975 260.113 109.849 261.548 108.621C265.034 105.959 267.803 104.628 269.853 104.628C272.109 104.628 274.98 105.652 278.466 107.699C282.157 109.747 285.335 112.101 288.001 114.763C290.667 117.425 292 119.574 292 121.212C292 122.645 291.59 123.874 290.77 124.898C290.154 125.717 289.334 126.433 288.309 127.047C286.463 128.276 285.028 129.607 284.003 131.04C283.182 132.473 282.875 134.623 283.08 137.489L283.387 150.388C283.387 174.547 281.747 197.274 278.466 218.567C275.185 239.86 270.879 257.775 265.547 272.311C260.215 286.643 254.679 296.164 248.937 300.873C241.965 306.606 235.505 309.472 229.559 309.472C223.817 309.472 219.203 306.913 215.717 301.794C212.846 297.495 207.104 293.502 198.492 289.817C190.084 286.131 182.907 283.367 176.96 281.525C171.218 279.477 167.835 278.249 166.81 277.839C163.734 276.611 162.196 274.768 162.196 272.311C162.196 270.878 162.811 269.752 164.041 268.933C165.477 267.909 167.322 267.705 169.578 268.319L178.19 271.083C198.287 278.454 212.641 282.139 221.254 282.139C224.329 282.139 226.79 281.73 228.636 280.911C251.808 270.878 263.394 221.433 263.394 132.575C263.394 129.095 262.471 126.433 260.625 124.591C258.78 122.748 256.114 121.827 252.628 121.827H195.416C188.854 121.827 185.06 125.205 184.035 131.961C178.703 174.343 166.912 211.196 148.662 242.522C130.616 273.847 102.523 297.597 64.3809 313.772C62.7405 314.591 60.8949 315 58.8443 315C57.2038 315 55.7683 314.591 54.538 313.772C53.5127 312.953 53 312.031 53 311.008C53 308.755 55.0506 306.708 59.1519 304.865Z" fill="white"/>
</g>
<defs>
<filter id="filter0_g_1_3403" x="46.2" y="23.2" width="252.6" height="298.6" filterUnits="userSpaceOnUse" color-interpolation-filters="sRGB">
<feFlood flood-opacity="0" result="BackgroundImageFix"/>
<feBlend mode="normal" in="SourceGraphic" in2="BackgroundImageFix" result="shape"/>
<feTurbulence type="fractalNoise" baseFrequency="1.4285714626312256 1.4285714626312256" numOctaves="3" seed="491" />
<feDisplacementMap in="shape" scale="13.600000381469727" xChannelSelector="R" yChannelSelector="G" result="displacedImage" width="100%" height="100%" />
<feMerge result="effect1_texture_1_3403">
<feMergeNode in="displacedImage"/>
</feMerge>
</filter>
</defs>
</svg>
